# xmcd
#
# Track frame offsets: 
#        150
#        15801
#        39775
#        64446
#        90537
#        109442
#        124492
#        146241
#        168111
#        179503
#        197879
#        223230
#
# Disc length: 3132 seconds
#
# Revision: 1
# Processed by: cddbd v1.5.2PL0 Copyright (c) Steve Scherf et al.
# Submitted via: ExactAudioCopy v0.99pb4
#
DISCID=b10c3a0c
DTITLE=Hot Chip - The Warning
DYEAR=2006
DGENRE=Electronic
TTITLE0=Careful
TTITLE1=And I Was A Boy From School
TTITLE2=Colours
TTITLE3=Over And Over
TTITLE4=(Just Like We) Breakdown
TTITLE5=Tchaparian
TTITLE6=Look After Me
TTITLE7=The Warning
TTITLE8=Arrest Yourself
TTITLE9=So Glad To See You
TTITLE10=No Fit State
TTITLE11=Won't Wash
EXTD=
EXTT0=
EXTT1=
EXTT2=
EXTT3=
EXTT4=
EXTT5=
EXTT6=
EXTT7=
EXTT8=
EXTT9=
EXTT10=
EXTT11=
PLAYORDER=
